# xmcd
#
# Track frame offsets:
# 150
# 13044
# 25960
# 39573
# 53556
# 67469
# 81012
# 94747
# 107206
# 119764
# 132809
# 144079
# 158056
# 170087
# 184232
# 196111
# 208330
# 222184
# 234844
# 247343
# 259493
# 272343
# 284928
# 297684
# 310981
#
# Disc length: 4308 seconds
#
#
# Revision: 2
# Processed by: cddbd v1.5.2PL0 Copyright (c) Steve Scherf et al.
# Submitted via: FreeRIP 2.96 
#
DISCID=8d10d219
DTITLE=Sons of the Pioneers - My Saddle Pals and I - disc 1, Tumbling Tumbleweed
DYEAR=2005
DGENRE=Country
TTITLE0=Way Out There
TTITLE1=Tumbling Tumbleweed (1)
TTITLE2=I Follow The Stream
TTITLE3=There's A Round-Up In The Sky
TTITLE4=The Rovin' Cowboy
TTITLE5=When Our Old Age Pension Check Comes To Our Door
TTITLE6=Over The Santa Fe Trail
TTITLE7=Song Of The Pioneers
TTITLE8=Echoes From The Hills
TTITLE9=Kilocycle Stomp
TTITLE10=Cajun Stomp
TTITLE11=Hills Of Old Wyoming
TTITLE12=A Melody From The Sky
TTITLE13=Blue Bonnet Girl
TTITLE14=Ride Ranger Ride
TTITLE15=Empty Saddles
TTITLE16=Blue Prairie
TTITLE17=I'm An Old Cowhand
TTITLE18=One More Ride
TTITLE19=My Saddle Pals And I
TTITLE20=I Wonder If She Waits For Me Tonight
TTITLE21=Song Of The Bandit
TTITLE22=One More River To Cross
TTITLE23=The Devil's Great Grandson
TTITLE24=When The Golden Train Comes Down
EXTD=
EXTT0=
EXTT1=
EXTT2=
EXTT3=
EXTT4=
EXTT5=
EXTT6=
EXTT7=
EXTT8=
EXTT9=
EXTT10=
EXTT11=
EXTT12=
EXTT13=
EXTT14=
EXTT15=
EXTT16=
EXTT17=
EXTT18=
EXTT19=
EXTT20=
EXTT21=
EXTT22=
EXTT23=
EXTT24=
PLAYORDER=
